<svg width="14" height="14" viewBox="0 0 14 14" fill="none" xmlns="http://www.w3.org/2000/svg">
<path fill-rule="evenodd" clip-rule="evenodd" d="M7.50754 12.6789C7.19571 12.4966 6.80976 12.4966 6.49793 12.6789L5.19607 13.4402C4.62446 13.7745 3.89167 13.4709 3.7239 12.8304L3.34208 11.3726C3.25052 11.023 2.97749 10.7501 2.62789 10.6586L1.16962 10.2769C0.528793 10.1092 0.225151 9.37608 0.55974 8.80439L1.32054 7.50446C1.50314 7.19247 1.50314 6.80622 1.32054 6.49423L0.55974 5.1943C0.225152 4.62261 0.528794 3.88947 1.16962 3.72177L2.62789 3.34013C2.97749 3.24864 3.25052 2.97566 3.34208 2.62608L3.7239 1.16832C3.89167 0.527749 4.62446 0.224184 5.19607 0.558454L6.49793 1.31976C6.80976 1.50212 7.19571 1.50212 7.50754 1.31976L8.80939 0.558455C9.381 0.224184 10.1138 0.52775 10.2816 1.16832L10.6634 2.62608C10.7549 2.97566 11.028 3.24864 11.3776 3.34013L12.8359 3.72177C13.4767 3.88947 13.7803 4.62261 13.4457 5.1943L12.6849 6.49423C12.5023 6.80622 12.5023 7.19247 12.6849 7.50446L13.4457 8.80439C13.7803 9.37608 13.4767 10.1092 12.8359 10.2769L11.3776 10.6586C11.028 10.7501 10.7549 11.023 10.6634 11.3726L10.2816 12.8304C10.1138 13.4709 9.38101 13.7745 8.8094 13.4402L7.50754 12.6789ZM7.50674 11.3328C7.1949 11.1504 6.80896 11.1504 6.49712 11.3328L5.47621 11.9298C5.13325 12.1303 4.69357 11.9482 4.59291 11.5638L4.2935 10.4207C4.20194 10.0711 3.9289 9.79813 3.57931 9.70665L2.43566 9.40735C2.05116 9.30673 1.86898 8.86684 2.06973 8.52383L2.66638 7.50438C2.84898 7.19239 2.84898 6.80614 2.66638 6.49415L2.06973 5.4747C1.86898 5.13168 2.05116 4.6918 2.43566 4.59118L3.5793 4.29188C3.9289 4.20039 4.20194 3.92741 4.2935 3.57783L4.59291 2.43468C4.69357 2.05034 5.13325 1.8682 5.47621 2.06876L6.49712 2.66577C6.80896 2.84813 7.1949 2.84813 7.50674 2.66577L8.52764 2.06876C8.87061 1.8682 9.31028 2.05034 9.41095 2.43468L9.71036 3.57783C9.80192 3.92741 10.075 4.20039 10.4246 4.29188L11.5682 4.59118C11.9527 4.6918 12.1349 5.13168 11.9341 5.4747L11.3375 6.49415C11.1549 6.80614 11.1549 7.19239 11.3375 7.50438L11.9341 8.52383C12.1349 8.86684 11.9527 9.30673 11.5682 9.40735L10.4246 9.70665C10.075 9.79813 9.80192 10.0711 9.71036 10.4207L9.41095 11.5638C9.31028 11.9482 8.87061 12.1303 8.52764 11.9298L7.50674 11.3328ZM6.11327 5.22293C6.11327 5.71353 5.7154 6.11124 5.22461 6.11124C4.73381 6.11124 4.33594 5.71353 4.33594 5.22293C4.33594 4.73233 4.73381 4.33463 5.22461 4.33463C5.7154 4.33463 6.11327 4.73233 6.11327 5.22293ZM8.77929 9.6643C9.27009 9.6643 9.66796 9.26659 9.66796 8.77599C9.66796 8.28539 9.27009 7.88769 8.77929 7.88769C8.2885 7.88769 7.89063 8.28539 7.89063 8.77599C7.89063 9.26659 8.2885 9.6643 8.77929 9.6643ZM9.33816 4.48679C9.06052 4.20926 8.61038 4.20926 8.33275 4.48679L4.3111 8.5068C4.03346 8.78433 4.03346 9.23428 4.3111 9.51181C4.58873 9.78933 5.03887 9.78933 5.31651 9.51181L9.33816 5.49179C9.61579 5.21427 9.61579 4.76431 9.33816 4.48679Z" fill="#66332B"/>
</svg>
