<svg width="13" height="16" viewBox="0 0 13 16" fill="none" xmlns="http://www.w3.org/2000/svg">
<path fill-rule="evenodd" clip-rule="evenodd" d="M2.74286 16H10.0571C11.0629 16 11.8857 15.2 11.8857 14.2222V4.55556C11.8857 4.00327 11.438 3.55556 10.8857 3.55556H1.91428C1.362 3.55556 0.914286 4.00327 0.914286 4.55556V14.2222C0.914286 15.2 1.73714 16 2.74286 16ZM10.006 0.888889C9.74565 0.888889 9.49557 0.787361 9.30891 0.605884L8.97681 0.283005C8.79014 0.101528 8.54007 0 8.27973 0H4.52027C4.25993 0 4.00986 0.101528 3.82319 0.283005L3.49109 0.605884C3.30443 0.787361 3.05435 0.888889 2.79401 0.888889H0.88889C0.39797 0.888889 0 1.28686 0 1.77778C0 2.2687 0.397969 2.66667 0.888889 2.66667H11.9111C12.402 2.66667 12.8 2.2687 12.8 1.77778C12.8 1.28686 12.402 0.888889 11.9111 0.888889H10.006Z" fill="#66332B"/>
</svg>
