<svg width="20" height="20" viewBox="0 0 20 20" fill="none" xmlns="http://www.w3.org/2000/svg">
<path fill-rule="evenodd" clip-rule="evenodd" d="M4.33366 5.33342C4.88594 5.33342 5.33366 4.8857 5.33366 4.33342V1.66675C5.33366 1.11446 4.88594 0.666748 4.33366 0.666748H1.66699C1.11471 0.666748 0.666992 1.11446 0.666992 1.66675V4.33342C0.666992 4.8857 1.11471 5.33342 1.66699 5.33342H4.33366ZM11.3337 19.3334C11.8859 19.3334 12.3337 18.8857 12.3337 18.3334V15.6667C12.3337 15.1145 11.8859 14.6667 11.3337 14.6667H8.66699C8.11471 14.6667 7.66699 15.1145 7.66699 15.6667V18.3334C7.66699 18.8857 8.11471 19.3334 8.66699 19.3334H11.3337ZM4.33366 19.3334C4.88594 19.3334 5.33366 18.8857 5.33366 18.3334V15.6667C5.33366 15.1145 4.88594 14.6667 4.33366 14.6667H1.66699C1.11471 14.6667 0.666992 15.1145 0.666992 15.6667V18.3334C0.666992 18.8857 1.11471 19.3334 1.66699 19.3334H4.33366ZM4.33366 12.3334C4.88594 12.3334 5.33366 11.8857 5.33366 11.3334V8.66675C5.33366 8.11446 4.88594 7.66675 4.33366 7.66675H1.66699C1.11471 7.66675 0.666992 8.11446 0.666992 8.66675V11.3334C0.666992 11.8857 1.11471 12.3334 1.66699 12.3334H4.33366ZM11.3337 12.3334C11.8859 12.3334 12.3337 11.8857 12.3337 11.3334V8.66675C12.3337 8.11446 11.8859 7.66675 11.3337 7.66675H8.66699C8.11471 7.66675 7.66699 8.11446 7.66699 8.66675V11.3334C7.66699 11.8857 8.11471 12.3334 8.66699 12.3334H11.3337ZM14.667 4.33342C14.667 4.8857 15.1147 5.33342 15.667 5.33342H18.3337C18.8859 5.33342 19.3337 4.8857 19.3337 4.33342V1.66675C19.3337 1.11446 18.8859 0.666748 18.3337 0.666748H15.667C15.1147 0.666748 14.667 1.11446 14.667 1.66675V4.33342ZM11.3337 5.33342C11.8859 5.33342 12.3337 4.8857 12.3337 4.33342V1.66675C12.3337 1.11446 11.8859 0.666748 11.3337 0.666748H8.66699C8.11471 0.666748 7.66699 1.11446 7.66699 1.66675V4.33342C7.66699 4.8857 8.11471 5.33342 8.66699 5.33342H11.3337ZM18.3337 12.3334C18.8859 12.3334 19.3337 11.8857 19.3337 11.3334V8.66675C19.3337 8.11446 18.8859 7.66675 18.3337 7.66675H15.667C15.1147 7.66675 14.667 8.11446 14.667 8.66675V11.3334C14.667 11.8857 15.1147 12.3334 15.667 12.3334H18.3337ZM18.3337 19.3334C18.8859 19.3334 19.3337 18.8857 19.3337 18.3334V15.6667C19.3337 15.1145 18.8859 14.6667 18.3337 14.6667H15.667C15.1147 14.6667 14.667 15.1145 14.667 15.6667V18.3334C14.667 18.8857 15.1147 19.3334 15.667 19.3334H18.3337Z" fill="#525960"/>
</svg>
